<?xml version="1.0" encoding="UTF-8"?>
<svg id="HYPIQ" xmlns="http://www.w3.org/2000/svg" xmlns:xlink="http://www.w3.org/1999/xlink" viewBox="0 0 1024 1024">
  <defs>
    <style>
      .cls-1, .cls-2 {
        fill: none;
      }

      .cls-2 {
        stroke: #fff;
        stroke-miterlimit: 10;
        stroke-width: 43px;
      }

      .cls-3 {
        clip-path: url(#clippath-1);
      }

      .cls-4 {
        fill: #fff;
      }

      .cls-5 {
        fill: #fefefe;
      }

      .cls-6 {
        clip-path: url(#clippath);
      }
    </style>
    <clipPath id="clippath">
      <path class="cls-1" d="M239.5,480.75s96.65-2.91,160.28-6.31c63.63-3.4,143.27-4.85,219.53,15.55,76.25,20.4,124.33,10.12,145.71-8.78,21.37-18.91,61.68-48.29,95.19-60.67,0,0,13.6,23.07-60.22,96.89,0,0-7.77,8.26-2.91,18.94,0,0,27.68,48.57,44.19,62.65,0,0,2.91,10.68-22.83,0-25.74-10.68-66.05-59.26-70.42-60.22-4.37-.97-8.26-8.74-52.94,5.35-44.69,14.09-193.3,54.39-193.3,54.39,0,0-9.22,4.37-8.26,15.55.97,11.17,42.25,56.34,42.25,56.34,0,0,4.37,5.83-11.17,4.37-15.55-1.46-82.08-29.14-103.93-78.2,0,0-3.89-22.34-44.19-35.94-40.32-13.6-126.28-45.17-142.31-73.83,0,0-5.85-5.72,5.35-6.07h0Z"/>
    </clipPath>
    <clipPath id="clippath-1">
      <path class="cls-1" d="M-1139.88-4893.77s637.76-19.23,1057.6-41.66,945.43-32.05,1448.59,102.56c503.16,134.6,820.44,66.82,961.45-57.93s407.02-318.64,628.15-400.37c0,0,89.74,152.23-397.4,639.37,0,0-51.28,54.48-19.23,124.99,0,0,182.68,320.48,291.64,413.43,0,0,19.23,70.51-150.63,0s-435.86-390.99-464.7-397.4c-28.84-6.41-54.48-57.69-349.33,35.25s-1275.53,358.94-1275.53,358.94c0,0-60.89,28.84-54.48,102.56,6.41,73.71,278.82,371.76,278.82,371.76,0,0,28.84,38.46-73.71,28.84-102.56-9.61-541.62-192.29-685.84-515.98,0,0-25.64-147.42-291.64-237.16-266-89.74-833.26-298.05-939.02-487.14,0,0-38.64-37.75,35.25-40.06h0Z"/>
    </clipPath>
  </defs>
  <g>
    <g class="cls-6">
      <g>
        <g>
          <line class="cls-1" x1="-548.91" y1="1068.91" x2="1014.15" y2="-102.21"/>
          <rect class="cls-4" x="-743.96" y="480.11" width="1953.12" height="6.51" transform="translate(-243.37 235.99) rotate(-36.84)"/>
        </g>
        <g>
          <line class="cls-1" x1="-548.91" y1="1081.79" x2="1014.15" y2="-89.32"/>
          <rect class="cls-4" x="-743.95" y="492.99" width="1953.12" height="6.51" transform="translate(-251.09 238.56) rotate(-36.84)"/>
        </g>
        <g>
          <line class="cls-1" x1="-548.91" y1="1094.68" x2="1014.15" y2="-76.44"/>
          <rect class="cls-4" x="-743.95" y="505.88" width="1953.12" height="6.51" transform="translate(-258.82 241.14) rotate(-36.84)"/>
        </g>
        <g>
          <line class="cls-1" x1="-548.91" y1="1107.56" x2="1014.15" y2="-63.56"/>
          <rect class="cls-4" x="-743.95" y="518.75" width="1953.12" height="6.51" transform="translate(-266.54 243.71) rotate(-36.84)"/>
        </g>
        <g>
          <line class="cls-1" x1="-548.91" y1="1120.45" x2="1014.15" y2="-50.67"/>
          <rect class="cls-4" x="-743.95" y="531.64" width="1953.12" height="6.51" transform="translate(-274.26 246.28) rotate(-36.84)"/>
        </g>
        <g>
          <line class="cls-1" x1="-548.91" y1="1133.33" x2="1014.15" y2="-37.79"/>
          <rect class="cls-4" x="-743.96" y="544.52" width="1953.12" height="6.51" transform="translate(-281.99 248.85) rotate(-36.84)"/>
        </g>
        <g>
          <line class="cls-1" x1="-548.91" y1="1146.22" x2="1014.15" y2="-24.9"/>
          <rect class="cls-4" x="-743.95" y="557.41" width="1953.12" height="6.51" transform="translate(-289.72 251.43) rotate(-36.84)"/>
        </g>
        <g>
          <line class="cls-1" x1="-548.91" y1="1159.1" x2="1014.15" y2="-12.02"/>
          <rect class="cls-4" x="-743.95" y="570.29" width="1953.12" height="6.51" transform="translate(-297.44 254) rotate(-36.84)"/>
        </g>
        <g>
          <line class="cls-1" x1="-548.91" y1="1171.99" x2="1014.15" y2=".87"/>
          <rect class="cls-4" x="-743.96" y="583.18" width="1953.12" height="6.51" transform="translate(-305.17 256.57) rotate(-36.84)"/>
        </g>
        <g>
          <line class="cls-1" x1="-548.91" y1="1184.87" x2="1014.15" y2="13.75"/>
          <rect class="cls-4" x="-743.96" y="596.07" width="1953.12" height="6.51" transform="translate(-312.9 259.14) rotate(-36.84)"/>
        </g>
        <g>
          <line class="cls-1" x1="-548.91" y1="1197.75" x2="1014.15" y2="26.64"/>
          <rect class="cls-4" x="-743.96" y="608.96" width="1953.12" height="6.51" transform="translate(-320.63 261.72) rotate(-36.84)"/>
        </g>
        <g>
          <line class="cls-1" x1="-548.91" y1="1210.64" x2="1014.15" y2="39.52"/>
          <rect class="cls-4" x="-743.96" y="621.83" width="1953.12" height="6.51" transform="translate(-328.34 264.29) rotate(-36.84)"/>
        </g>
        <g>
          <line class="cls-1" x1="-548.91" y1="1223.52" x2="1014.15" y2="52.41"/>
          <rect class="cls-4" x="-743.95" y="634.72" width="1953.12" height="6.51" transform="translate(-336.07 266.86) rotate(-36.84)"/>
        </g>
        <g>
          <line class="cls-1" x1="-548.91" y1="1236.41" x2="1014.15" y2="65.29"/>
          <rect class="cls-4" x="-743.95" y="647.6" width="1953.12" height="6.51" transform="translate(-343.79 269.44) rotate(-36.84)"/>
        </g>
        <g>
          <line class="cls-1" x1="-548.91" y1="1249.29" x2="1014.15" y2="78.17"/>
          <rect class="cls-4" x="-743.95" y="660.49" width="1953.12" height="6.51" transform="translate(-351.52 272.01) rotate(-36.84)"/>
        </g>
        <g>
          <line class="cls-1" x1="-548.91" y1="1262.18" x2="1014.15" y2="91.06"/>
          <rect class="cls-4" x="-743.96" y="673.37" width="1953.12" height="6.51" transform="translate(-359.24 274.58) rotate(-36.84)"/>
        </g>
        <g>
          <line class="cls-1" x1="-548.91" y1="1275.06" x2="1014.15" y2="103.94"/>
          <rect class="cls-4" x="-743.95" y="686.25" width="1953.12" height="6.51" transform="translate(-366.97 277.15) rotate(-36.84)"/>
        </g>
        <g>
          <line class="cls-1" x1="-548.91" y1="1287.95" x2="1014.15" y2="116.83"/>
          <rect class="cls-4" x="-743.97" y="699.15" width="1953.12" height="6.51" transform="translate(-374.71 279.72) rotate(-36.84)"/>
        </g>
        <g>
          <line class="cls-1" x1="-548.91" y1="1300.83" x2="1014.15" y2="129.71"/>
          <rect class="cls-4" x="-743.96" y="712.03" width="1953.12" height="6.51" transform="translate(-382.43 282.3) rotate(-36.84)"/>
        </g>
        <g>
          <line class="cls-1" x1="-548.91" y1="1313.72" x2="1014.15" y2="142.6"/>
          <rect class="cls-4" x="-743.97" y="724.92" width="1953.12" height="6.51" transform="translate(-390.16 284.87) rotate(-36.84)"/>
        </g>
        <g>
          <line class="cls-1" x1="-548.91" y1="1326.6" x2="1014.15" y2="155.48"/>
          <rect class="cls-4" x="-743.96" y="737.8" width="1953.12" height="6.51" transform="translate(-397.87 287.44) rotate(-36.84)"/>
        </g>
        <g>
          <line class="cls-1" x1="-548.91" y1="1339.48" x2="1014.15" y2="168.37"/>
          <rect class="cls-4" x="-743.96" y="750.68" width="1953.12" height="6.51" transform="translate(-405.6 290.02) rotate(-36.84)"/>
        </g>
        <g>
          <line class="cls-1" x1="-548.91" y1="1352.37" x2="1014.15" y2="181.25"/>
          <rect class="cls-4" x="-743.95" y="763.57" width="1953.12" height="6.51" transform="translate(-413.32 292.59) rotate(-36.84)"/>
        </g>
        <g>
          <line class="cls-1" x1="-548.91" y1="1365.25" x2="1014.15" y2="194.14"/>
          <rect class="cls-4" x="-743.97" y="776.46" width="1953.12" height="6.51" transform="translate(-421.06 295.16) rotate(-36.84)"/>
        </g>
        <g>
          <line class="cls-1" x1="-548.91" y1="1378.14" x2="1014.15" y2="207.02"/>
          <rect class="cls-4" x="-743.97" y="789.35" width="1953.12" height="6.51" transform="translate(-428.79 297.73) rotate(-36.84)"/>
        </g>
        <g>
          <line class="cls-1" x1="-548.91" y1="1391.02" x2="1014.15" y2="219.91"/>
          <rect class="cls-4" x="-743.97" y="802.23" width="1953.12" height="6.51" transform="translate(-436.51 300.3) rotate(-36.84)"/>
        </g>
        <g>
          <line class="cls-1" x1="-548.91" y1="1403.91" x2="1014.15" y2="232.79"/>
          <rect class="cls-4" x="-743.97" y="815.12" width="1953.12" height="6.51" transform="translate(-444.24 302.88) rotate(-36.84)"/>
        </g>
        <g>
          <line class="cls-1" x1="-548.91" y1="1416.79" x2="1014.15" y2="245.67"/>
          <rect class="cls-4" x="-743.98" y="828" width="1953.12" height="6.51" transform="translate(-451.96 305.45) rotate(-36.84)"/>
        </g>
        <g>
          <line class="cls-1" x1="-548.91" y1="1429.68" x2="1014.15" y2="258.56"/>
          <rect class="cls-4" x="-743.97" y="840.89" width="1953.12" height="6.51" transform="translate(-459.69 308.02) rotate(-36.84)"/>
        </g>
        <g>
          <line class="cls-1" x1="-548.91" y1="1442.56" x2="1014.15" y2="271.44"/>
          <rect class="cls-4" x="-743.97" y="853.77" width="1953.12" height="6.51" transform="translate(-467.41 310.59) rotate(-36.84)"/>
        </g>
        <g>
          <line class="cls-1" x1="-548.91" y1="1455.45" x2="1014.15" y2="284.33"/>
          <rect class="cls-4" x="-743.98" y="866.66" width="1953.12" height="6.51" transform="translate(-475.14 313.17) rotate(-36.84)"/>
        </g>
        <g>
          <line class="cls-1" x1="-548.91" y1="1468.34" x2="1014.15" y2="297.21"/>
          <rect class="cls-4" x="-743.97" y="879.55" width="1953.12" height="6.51" transform="translate(-482.87 315.74) rotate(-36.84)"/>
        </g>
        <g>
          <line class="cls-1" x1="-548.91" y1="1481.22" x2="1014.15" y2="310.1"/>
          <rect class="cls-4" x="-743.97" y="892.43" width="1953.12" height="6.51" transform="translate(-490.59 318.31) rotate(-36.84)"/>
        </g>
        <g>
          <line class="cls-1" x1="-548.91" y1="1494.1" x2="1014.15" y2="322.98"/>
          <rect class="cls-4" x="-743.98" y="905.32" width="1953.12" height="6.51" transform="translate(-498.32 320.89) rotate(-36.84)"/>
        </g>
        <g>
          <line class="cls-1" x1="-548.91" y1="1506.98" x2="1014.15" y2="335.87"/>
          <rect class="cls-4" x="-743.97" y="918.2" width="1953.12" height="6.51" transform="translate(-506.04 323.46) rotate(-36.84)"/>
        </g>
        <g>
          <line class="cls-1" x1="-548.91" y1="1519.87" x2="1014.15" y2="348.75"/>
          <rect class="cls-4" x="-743.98" y="931.09" width="1953.12" height="6.51" transform="translate(-513.77 326.03) rotate(-36.84)"/>
        </g>
        <g>
          <line class="cls-1" x1="-548.91" y1="1532.75" x2="1014.15" y2="361.64"/>
          <rect class="cls-4" x="-743.97" y="943.97" width="1953.12" height="6.51" transform="translate(-521.49 328.6) rotate(-36.84)"/>
        </g>
        <g>
          <line class="cls-1" x1="-548.91" y1="1545.64" x2="1014.15" y2="374.52"/>
          <rect class="cls-4" x="-743.97" y="956.86" width="1953.12" height="6.51" transform="translate(-529.22 331.18) rotate(-36.84)"/>
        </g>
        <g>
          <line class="cls-1" x1="-548.91" y1="1558.52" x2="1014.15" y2="387.4"/>
          <rect class="cls-4" x="-743.98" y="969.74" width="1953.12" height="6.51" transform="translate(-536.95 333.75) rotate(-36.84)"/>
        </g>
        <g>
          <line class="cls-1" x1="-548.91" y1="1571.41" x2="1014.15" y2="400.29"/>
          <rect class="cls-4" x="-743.98" y="982.62" width="1953.12" height="6.51" transform="translate(-544.67 336.32) rotate(-36.84)"/>
        </g>
        <g>
          <line class="cls-1" x1="-548.91" y1="1584.29" x2="1014.15" y2="413.17"/>
          <rect class="cls-4" x="-743.98" y="995.51" width="1953.12" height="6.51" transform="translate(-552.4 338.9) rotate(-36.84)"/>
        </g>
        <g>
          <line class="cls-1" x1="-548.91" y1="1597.18" x2="1014.15" y2="426.06"/>
          <rect class="cls-4" x="-743.98" y="1008.39" width="1953.12" height="6.51" transform="translate(-560.12 341.46) rotate(-36.84)"/>
        </g>
        <g>
          <line class="cls-1" x1="-548.91" y1="1610.07" x2="1014.15" y2="438.94"/>
          <rect class="cls-4" x="-743.98" y="1021.28" width="1953.12" height="6.51" transform="translate(-567.85 344.04) rotate(-36.84)"/>
        </g>
        <g>
          <line class="cls-1" x1="-548.91" y1="1622.95" x2="1014.15" y2="451.83"/>
          <rect class="cls-4" x="-743.98" y="1034.16" width="1953.12" height="6.51" transform="translate(-575.58 346.61) rotate(-36.84)"/>
        </g>
        <g>
          <line class="cls-1" x1="-548.91" y1="1635.84" x2="1014.15" y2="464.71"/>
          <rect class="cls-4" x="-743.98" y="1047.05" width="1953.12" height="6.51" transform="translate(-583.3 349.18) rotate(-36.84)"/>
        </g>
        <g>
          <line class="cls-1" x1="-548.91" y1="1648.71" x2="1014.15" y2="477.6"/>
          <rect class="cls-4" x="-743.98" y="1059.93" width="1953.12" height="6.51" transform="translate(-591.03 351.76) rotate(-36.84)"/>
        </g>
        <g>
          <line class="cls-1" x1="-548.91" y1="1661.6" x2="1014.15" y2="490.48"/>
          <rect class="cls-4" x="-743.98" y="1072.82" width="1953.12" height="6.51" transform="translate(-598.76 354.33) rotate(-36.84)"/>
        </g>
        <g>
          <line class="cls-1" x1="-548.91" y1="1674.48" x2="1014.15" y2="503.37"/>
          <rect class="cls-4" x="-743.98" y="1085.7" width="1953.12" height="6.51" transform="translate(-606.48 356.9) rotate(-36.84)"/>
        </g>
      </g>
    </g>
    <path class="cls-5" d="M443.61,634.9c-2.23-2.55-6.67-7.56-8.91-10.09-2.98-3.42-6.01-6.66-8.81-10.28-2.31-3.04-5.12-8.22-7.1-11.59-1.92-3.18-4.35-7.71-6.44-10.66-4.54-6.44-10.54-11.73-17.14-15.99-7.33-4.71-15.39-8.31-23.73-10.82-1.02-.3-2.12-.61-3.16-.85-27.94-9.02-55.65-18.87-82.35-31.16-17.27-8.12-44.79-21.75-55.41-37.66-.83-1.25-1.51-2.54-2.19-3.84l-.13-.24-.05-.09s-.04-.07-.05-.08l-.03-.05c-.04-.07-.1-.15-.15-.22-.14-.19-.3-.36-.43-.48s-.24-.18-.19-.15c.03,0,.1.04.25.06.59.11,1.48-.27,1.78-.78.04-.07.04-.08.03-.05,0,.03-.03.1-.06.19-.17.93-.15,1.88-.04,2.94.35,3.29,1.26,6.72,2.24,9.97.42,1.42.96,2.99,1.44,4.4,1.83,5.07,4.65,9.8,7.62,14.31,2.47,3.69,5.16,7.25,8.01,10.68,26.24,31.15,61.88,53.5,99.83,67.72,3.41,1.27,6.86,2.46,10.32,3.62l-.12.39c-28.09-8-54.9-20.74-78.48-38.01-16.14-11.91-31.12-25.79-42.6-42.32-3.34-4.93-6.41-10.09-8.42-15.72-.4-1.18-.93-2.69-1.3-3.9-1.08-3.51-2.07-7.06-2.46-10.73-.13-1.39-.19-2.82.11-4.21.35-1.7,1.54-2.99,3.41-2.19,1.34.6,2.32,1.81,2.99,3.08,3.01,6.14,8.06,10.94,13.34,15.16,7.15,5.64,14.97,10.36,22.94,14.75,33.13,17.66,68.76,30.83,104.28,42.48,3.22,1.02,6.38,2.21,9.47,3.55,12.81,5.6,25,13.87,32.68,25.78,2.09,3.32,3.88,6.86,5.78,10.27,1.74,3.17,4.53,8.67,6.66,11.65,1.28,1.82,2.71,3.55,4.12,5.29,4.05,4.93,8.77,10.64,12.78,15.62l-.32.26h0Z"/>
  </g>
  <g class="cls-3">
    <g>
      <line class="cls-2" x1="-6342.31" y1="7.52" x2="3971.86" y2="-7720.29"/>
      <line class="cls-2" x1="-6342.31" y1="92.54" x2="3971.86" y2="-7635.27"/>
      <line class="cls-2" x1="-6342.31" y1="177.56" x2="3971.86" y2="-7550.25"/>
      <line class="cls-2" x1="-6342.31" y1="262.59" x2="3971.86" y2="-7465.23"/>
      <line class="cls-2" x1="-6342.31" y1="347.61" x2="3971.86" y2="-7380.21"/>
      <line class="cls-2" x1="-6342.31" y1="432.63" x2="3971.86" y2="-7295.19"/>
      <line class="cls-2" x1="-6342.31" y1="517.65" x2="3971.86" y2="-7210.16"/>
      <line class="cls-2" x1="-6342.31" y1="602.67" x2="3971.86" y2="-7125.14"/>
      <line class="cls-2" x1="-6342.31" y1="687.69" x2="3971.86" y2="-7040.12"/>
      <line class="cls-2" x1="-6342.31" y1="772.71" x2="3971.86" y2="-6955.1"/>
      <line class="cls-2" x1="-6342.31" y1="857.73" x2="3971.86" y2="-6870.08"/>
      <line class="cls-2" x1="-6342.31" y1="942.76" x2="3971.86" y2="-6785.06"/>
      <line class="cls-2" x1="-6342.31" y1="1027.78" x2="3971.86" y2="-6700.04"/>
      <line class="cls-2" x1="-6342.31" y1="1112.8" x2="3971.86" y2="-6615.01"/>
      <line class="cls-2" x1="-6342.31" y1="1197.82" x2="3971.86" y2="-6529.99"/>
      <line class="cls-2" x1="-6342.31" y1="1282.84" x2="3971.86" y2="-6444.97"/>
      <line class="cls-2" x1="-6342.31" y1="1367.86" x2="3971.86" y2="-6359.95"/>
      <line class="cls-2" x1="-6342.31" y1="1452.88" x2="3971.86" y2="-6274.93"/>
      <line class="cls-2" x1="-6342.31" y1="1537.91" x2="3971.86" y2="-6189.91"/>
      <line class="cls-2" x1="-6342.31" y1="1622.93" x2="3971.86" y2="-6104.89"/>
      <line class="cls-2" x1="-6342.31" y1="1707.95" x2="3971.86" y2="-6019.87"/>
      <line class="cls-2" x1="-6342.31" y1="1792.97" x2="3971.86" y2="-5934.84"/>
      <line class="cls-2" x1="-6342.31" y1="1877.99" x2="3971.86" y2="-5849.82"/>
      <line class="cls-2" x1="-6342.31" y1="1963.01" x2="3971.86" y2="-5764.8"/>
      <line class="cls-2" x1="-6342.31" y1="2048.03" x2="3971.86" y2="-5679.78"/>
      <line class="cls-2" x1="-6342.31" y1="2133.06" x2="3971.86" y2="-5594.76"/>
      <line class="cls-2" x1="-6342.31" y1="2218.08" x2="3971.86" y2="-5509.74"/>
      <line class="cls-2" x1="-6342.31" y1="2303.1" x2="3971.86" y2="-5424.72"/>
      <line class="cls-2" x1="-6342.31" y1="2388.12" x2="3971.86" y2="-5339.69"/>
      <line class="cls-2" x1="-6342.31" y1="2473.14" x2="3971.86" y2="-5254.67"/>
      <line class="cls-2" x1="-6342.31" y1="2558.16" x2="3971.86" y2="-5169.65"/>
      <line class="cls-2" x1="-6342.31" y1="2643.18" x2="3971.86" y2="-5084.63"/>
      <line class="cls-2" x1="-6342.31" y1="2728.2" x2="3971.86" y2="-4999.61"/>
      <line class="cls-2" x1="-6342.31" y1="2813.23" x2="3971.86" y2="-4914.59"/>
      <line class="cls-2" x1="-6342.31" y1="2898.25" x2="3971.86" y2="-4829.57"/>
      <line class="cls-2" x1="-6342.31" y1="2983.27" x2="3971.86" y2="-4744.54"/>
    </g>
  </g>
</svg>